<?xml version="1.0" encoding="UTF-8"?>
<svg version="1.1" xmlns="http://www.w3.org/2000/svg" width="128" height="144">
<path d="M0 0 C7.31233587 4.50296432 15.06092381 10.12184763 19 18 C20.051875 17.1028125 20.051875 17.1028125 21.125 16.1875 C25.59252099 12.78829925 29.26853575 10.49428257 35 11 C35.495 12.98 35.495 12.98 36 15 C31.76405345 18.82601624 27.21592698 20.86362904 22 23 C22.474375 24.03125 22.94875 25.0625 23.4375 26.125 C27.14861015 36.17518348 26.84864699 47.07523568 23 57 C18.18269814 66.84567108 11.56578321 75.29002137 4.26171875 83.39453125 C1.01269411 87.52873907 0.70349896 90.76181504 1 96 C1.33 96.33 1.66 96.66 2 97 C2.37866739 102.68001087 2.06171487 105.17191116 -1 110 C-1.5626021 112.29525347 -1.99299751 114.58225565 -2.375 116.9140625 C-3.11827723 119.39475025 -3.98420104 120.40092871 -6 122 C-10.54560709 123.51520236 -15.05032006 123.26632502 -19.8125 123.3125 C-20.79798828 123.34150391 -21.78347656 123.37050781 -22.79882812 123.40039062 C-28.80373885 123.45281765 -32.5618355 123.23411096 -37 119 C-37.953125 116.7109375 -37.953125 116.7109375 -38.25 114.375 C-38.67744067 110.76767853 -38.67744067 110.76767853 -41 108 C-41.08575029 104.25681336 -40.99377516 100.5666264 -40.83398438 96.828125 C-40.64987703 89.10831362 -42.98543966 84.73727428 -48.3125 79.125 C-61.51459469 64.78516381 -63.87019094 52.76431378 -63.17480469 33.49316406 C-62.34490032 21.65659502 -55.92455466 13.51611325 -47.5625 5.6875 C-34.73808859 -5.26441671 -15.07675093 -8.20691641 0 0 Z M-48.3125 15.25 C-56.65210493 25.08475323 -57.72187385 36.54439477 -57 49 C-55.51466594 58.8827345 -52.25664086 65.98290322 -45.0625 72.875 C-38.49552517 79.20566324 -35.29456167 84.93806831 -34 94 C-24.76 94 -15.52 94 -6 94 C-5.34 90.7 -4.68 87.4 -4 84 C-1.64333368 80.38279124 0.73543068 77.35045342 3.66796875 74.21875 C7.51680792 70.0616514 10.50380003 65.77323943 13.3125 60.875 C13.81885986 59.99593994 13.81885986 59.99593994 14.33544922 59.09912109 C19.20112243 50.36945853 20.5833081 41.84600831 18.3125 32.02734375 C14.66889829 21.23317368 8.3731265 11.99722869 -1.78125 6.4921875 C-18.88860675 -1.55562817 -35.19727616 1.52871221 -48.3125 15.25 Z M-35 100 C-35 101.65 -35 103.3 -35 105 C-27.33967458 110.10688362 -16.43495051 108.45631052 -7.7421875 107.0234375 C-5.19761999 105.78556606 -5.19761999 105.78556606 -4 100 C-14.23 100 -24.46 100 -35 100 Z M-14.7890625 113.21875 C-15.73007813 113.26386719 -16.67109375 113.30898437 -17.640625 113.35546875 C-19.11789063 113.42701172 -19.11789063 113.42701172 -20.625 113.5 C-22.11386719 113.57154297 -22.11386719 113.57154297 -23.6328125 113.64453125 C-26.08856243 113.76259615 -28.54429019 113.88110393 -31 114 C-30.67 114.66 -30.34 115.32 -30 116 C-26.44086771 117.18637743 -23.201855 117.14615346 -19.5 117.125 C-18.48486328 117.13080078 -18.48486328 117.13080078 -17.44921875 117.13671875 C-14.35926233 117.13062416 -11.95320689 116.9844023 -9 116 C-8.67 115.01 -8.34 114.02 -8 113 C-10.26971752 113 -12.52181351 113.10948499 -14.7890625 113.21875 Z " fill="#509A8E" transform="translate(82,21)"/>
<path d="M0 0 C1.95099609 -0.04253906 1.95099609 -0.04253906 3.94140625 -0.0859375 C7.4375 0.375 7.4375 0.375 9.88671875 2.2265625 C11.75706152 4.81771748 11.78498579 6.24762789 11.4375 9.375 C11.97375 9.024375 12.51 8.67375 13.0625 8.3125 C16.32237691 7.02570648 18.10861425 7.3347232 21.4375 8.375 C24.0254615 10.826753 25.25278572 12.42833931 25.9375 15.9375 C25.28723341 19.10754965 23.87002005 20.3225612 21.4375 22.375 C22.55125 22.66375 23.665 22.9525 24.8125 23.25 C28.4375 24.375 28.4375 24.375 30.4375 26.375 C31.05354945 29.77511909 31.09445878 32.98071297 30.4375 36.375 C27.4375 39 27.4375 39 24.4375 40.375 C25.0975 41.365 25.7575 42.355 26.4375 43.375 C26.34118906 46.93850495 25.23235461 48.70081915 23.3125 51.75 C20.4375 54.375 20.4375 54.375 16.75 54.3125 C13.4375 53.375 13.4375 53.375 11.4375 52.375 C11.5921875 53.98375 11.5921875 53.98375 11.75 55.625 C11.4375 59.375 11.4375 59.375 9.5625 61.8125 C2.59199508 65.29775246 -6.32409312 63.62006738 -13.5625 61.375 C-17.97715966 58.87975758 -19.43857126 55.89764323 -21.45703125 51.45703125 C-22.63795631 49.23288617 -23.9901872 47.60348201 -25.6875 45.75 C-28.98036735 42.040314 -30.57113368 39.05143969 -30.5546875 33.953125 C-30.06947022 26.8225406 -28.36785478 22.88656732 -23.0625 18.0625 C-19.97559824 15.375 -19.97559824 15.375 -16.5625 15.375 C-16.645 14.158125 -16.7275 12.94125 -16.8125 11.6875 C-16.80675494 8.44153859 -16.58684177 7.41647116 -14.875 4.5 C-10.35948101 0.35060417 -6.00200309 0.05960281 0 0 Z M1.4375 6.375 C0.95544563 9.82302776 0.73849552 12.94830134 1.4375 16.375 C3.29314392 18.22631841 5.0386019 19.21122914 7.39453125 20.33984375 C9.60507211 21.45990748 10.90469359 22.43004927 12.4375 24.375 C13.7255764 28.65500069 13.7237637 32.42675151 12.4375 36.6875 C9.80527646 40.22455038 7.38601257 41.43663928 3.4375 43.375 C2.4475 43.87 2.4475 43.87 1.4375 44.375 C1.4375 48.665 1.4375 52.955 1.4375 57.375 C2.9225 56.88 2.9225 56.88 4.4375 56.375 C4.334375 55.4675 4.23125 54.56 4.125 53.625 C4.4375 50.375 4.4375 50.375 6.375 47.9375 C10.62902674 45.76707819 13.86783688 46.45907624 18.4375 47.375 C18.4375 46.385 18.4375 45.395 18.4375 44.375 C17.7775 43.715 17.1175 43.055 16.4375 42.375 C16.76167863 38.56590105 17.29331442 36.59127837 19.4375 33.375 C22.0625 32.6875 22.0625 32.6875 24.4375 32.375 C24.4375 31.715 24.4375 31.055 24.4375 30.375 C23.32375 30.106875 22.21 29.83875 21.0625 29.5625 C17.4375 28.375 17.4375 28.375 15.4375 25.375 C15.125 22.375 15.125 22.375 15.4375 19.375 C16.9375 17.625 16.9375 17.625 18.4375 16.375 C18.4375 15.715 18.4375 15.055 18.4375 14.375 C17.90125 14.705 17.365 15.035 16.8125 15.375 C12.84078905 17.04729935 9.46672547 16.71807516 5.4375 15.375 C5.1075 12.735 4.7775 10.095 4.4375 7.375 C3.4475 7.045 2.4575 6.715 1.4375 6.375 Z M-9.23828125 8.55078125 C-11.01411409 10.99713504 -10.86647492 12.5729771 -10.75 15.5625 C-10.72292969 16.46355469 -10.69585937 17.36460938 -10.66796875 18.29296875 C-10.63316406 18.98003906 -10.59835938 19.66710938 -10.5625 20.375 C-11.8 20.6225 -13.0375 20.87 -14.3125 21.125 C-18.08451816 22.0663355 -20.15826943 23.20141565 -22.5625 26.375 C-24.36267799 31.77553396 -24.30957731 35.82550631 -21.875 40.875 C-19.81077628 43.63788735 -19.81077628 43.63788735 -16.8125 43.75 C-16.07 43.62625 -15.3275 43.5025 -14.5625 43.375 C-14.624375 44.98375 -14.624375 44.98375 -14.6875 46.625 C-14.56825681 50.86580684 -14.56825681 50.86580684 -12.5625 54.375 C-9.56961009 56.37025994 -8.33164404 56.375 -4.5625 56.375 C-4.5625 40.205 -4.5625 24.035 -4.5625 7.375 C-7.49438488 7.08782077 -7.49438488 7.08782077 -9.23828125 8.55078125 Z M1.4375 23.375 C1.4375 27.995 1.4375 32.615 1.4375 37.375 C6.38213635 36.03936384 6.38213635 36.03936384 7.4375 33.375 C7.8444579 29.63098728 7.93654726 28.00712653 5.5625 25 C3.61856686 23.17251663 3.61856686 23.17251663 1.4375 23.375 Z " fill="#509A8E" transform="translate(62.5625,32.625)"/>
<path d="M0 0 C2.45703125 1.62890625 2.45703125 1.62890625 4.8125 3.5625 C5.60269531 4.20316406 6.39289063 4.84382813 7.20703125 5.50390625 C7.79871094 5.99761719 8.39039062 6.49132812 9 7 C8.67 8.65 8.34 10.3 8 12 C3.82866906 11.43630663 1.13668307 10.07382369 -2.3125 7.6875 C-3.19550781 7.09324219 -4.07851562 6.49898438 -4.98828125 5.88671875 C-5.65214844 5.26410156 -6.31601563 4.64148438 -7 4 C-7 2.68 -7 1.36 -7 0 C-4.23622104 -1.38188948 -2.94008127 -0.86270998 0 0 Z " fill="#509C8C" transform="translate(109,88)"/>
<path d="M0 0 C1.48831242 0.00667405 2.97660807 0.01863442 4.46484375 0.03515625 C5.22345703 0.03966797 5.98207031 0.04417969 6.76367188 0.04882812 C8.64326246 0.06064945 10.52281274 0.07858547 12.40234375 0.09765625 C12.78453142 1.75380282 13.11629477 3.42222649 13.40234375 5.09765625 C11.41648046 7.08351954 7.74772692 6.59553846 5.02734375 6.78515625 C4.3415625 6.84509766 3.65578125 6.90503906 2.94921875 6.96679688 C-0.87780475 7.23856022 -2.31111809 7.28868169 -5.59765625 5.09765625 C-4.47399541 0.12144396 -4.47399541 0.12144396 0 0 Z " fill="#509B8D" transform="translate(114.59765625,60.90234375)"/>
<path d="M0 0 C0.72703125 0.23976563 1.4540625 0.47953125 2.203125 0.7265625 C1.72909129 5.22988279 0.30328373 7.11748072 -3.046875 10.1015625 C-3.81515625 10.81054688 -4.5834375 11.51953125 -5.375 12.25 C-7.796875 13.7265625 -7.796875 13.7265625 -10.59375 13.453125 C-11.32078125 13.21335937 -12.0478125 12.97359375 -12.796875 12.7265625 C-12.32284129 8.22324221 -10.89703373 6.33564428 -7.546875 3.3515625 C-6.39445313 2.28808594 -6.39445313 2.28808594 -5.21875 1.203125 C-2.796875 -0.2734375 -2.796875 -0.2734375 0 0 Z " fill="#529C8D" transform="translate(17.796875,84.2734375)"/>
<path d="M0 0 C0.73605469 0.09796875 1.47210938 0.1959375 2.23046875 0.296875 C2.62237236 3.69541412 2.38470523 5.06104467 0.48046875 7.97265625 C-0.26203125 8.84277344 -1.00453125 9.71289062 -1.76953125 10.609375 C-2.51203125 11.49238281 -3.25453125 12.37539063 -4.01953125 13.28515625 C-4.88578125 14.28095703 -4.88578125 14.28095703 -5.76953125 15.296875 C-7.41953125 14.966875 -9.06953125 14.636875 -10.76953125 14.296875 C-10.76953125 9.61371539 -9.9157834 8.6296596 -7.08203125 5.046875 C-6.39753906 4.15484375 -5.71304688 3.2628125 -5.0078125 2.34375 C-2.76953125 0.296875 -2.76953125 0.296875 0 0 Z " fill="#509A8E" transform="translate(94.76953125,7.703125)"/>
<path d="M0 0 C1.2065625 0.0309375 1.2065625 0.0309375 2.4375 0.0625 C3.6107849 4.60897898 3.97878467 9.39277294 3.4375 14.0625 C2.7775 14.7225 2.1175 15.3825 1.4375 16.0625 C-1.1875 15.6875 -1.1875 15.6875 -3.5625 15.0625 C-3.58935412 12.75006208 -3.60882841 10.4375373 -3.625 8.125 C-3.63660156 6.83722656 -3.64820313 5.54945312 -3.66015625 4.22265625 C-3.53232863 0.08615436 -3.53232863 0.08615436 0 0 Z " fill="#4F9F88" transform="translate(61.5625,-0.0625)"/>
<path d="M0 0 C4.05004293 1.97029115 7.12219157 4.54662989 10 8 C10.3125 10.8125 10.3125 10.8125 10 13 C8.30078125 13.76171875 8.30078125 13.76171875 6 14 C3.60546875 12.26953125 3.60546875 12.26953125 1.1875 9.8125 C0.37667969 9.01457031 -0.43414063 8.21664063 -1.26953125 7.39453125 C-3 5 -3 5 -2.88671875 2.76171875 C-2 1 -2 1 0 0 Z " fill="#4E9790" transform="translate(30,8)"/>
<path d="M0 0 C1.43931117 0.45261358 2.87638999 0.91232979 4.3125 1.375 C5.11300781 1.63023438 5.91351563 1.88546875 6.73828125 2.1484375 C9 3 9 3 12 5 C11.67 6.65 11.34 8.3 11 10 C5.37458159 9.54996653 2.38512875 8.31558515 -2 5 C-1.125 1.125 -1.125 1.125 0 0 Z " fill="#519C8E" transform="translate(6,29)"/>
<path d="M0 0 C1.79244141 0.01740234 1.79244141 0.01740234 3.62109375 0.03515625 C5.41740234 0.04869141 5.41740234 0.04869141 7.25 0.0625 C8.17683594 0.07410156 9.10367187 0.08570313 10.05859375 0.09765625 C10.44078142 1.75380282 10.77254477 3.42222649 11.05859375 5.09765625 C10.05859375 6.09765625 10.05859375 6.09765625 7.1171875 6.1953125 C5.32474609 6.17791016 5.32474609 6.17791016 3.49609375 6.16015625 C1.69978516 6.14662109 1.69978516 6.14662109 -0.1328125 6.1328125 C-1.05964844 6.12121094 -1.98648438 6.10960938 -2.94140625 6.09765625 C-3.32359392 4.44150968 -3.65535727 2.77308601 -3.94140625 1.09765625 C-2.94140625 0.09765625 -2.94140625 0.09765625 0 0 Z " fill="#509A8E" transform="translate(3.94140625,57.90234375)"/>
<path d="M0 0 C3.98588425 2.16376573 7.08608344 4.50330013 10 8 C10.3125 10.8125 10.3125 10.8125 10 13 C9.9175 12.38125 9.835 11.7625 9.75 11.125 C9.22123344 8.87900069 9.22123344 8.87900069 7.3125 8.0625 C6.549375 7.711875 5.78625 7.36125 5 7 C2.93018071 5.4058849 0.97857994 3.70877359 -1 2 C-1.33 3.32 -1.66 4.64 -2 6 C-2.33 4.68 -2.66 3.36 -3 2 C-2.01 1.34 -1.02 0.68 0 0 Z " fill="#56A389" transform="translate(30,8)"/>
<path d="M0 0 C3.09998746 0.33214151 4.0545012 1.0545012 6.3125 3.3125 C8 6 8 6 7.75 8.3125 C7.5025 8.869375 7.255 9.42625 7 10 C6.5875 9.278125 6.175 8.55625 5.75 7.8125 C4.01263197 5.02030138 2.09618143 2.52987415 0 0 Z " fill="#57A389" transform="translate(35,76)"/>
</svg>
