<?xml version="1.0" encoding="UTF-8"?>
<svg version="1.1" xmlns="http://www.w3.org/2000/svg" width="312" height="350">
<path d="M0 0 C1.99395207 0.00315307 3.98788534 -0.02116039 5.98168945 -0.0456543 C17.74930341 -0.05147121 29.04640993 1.49227479 39.75708008 6.56567383 C40.75348511 7.02345215 40.75348511 7.02345215 41.77001953 7.49047852 C43.7542073 8.41388624 45.72495054 9.36168189 47.69458008 10.31567383 C48.8315332 10.85192383 49.96848633 11.38817383 51.13989258 11.94067383 C59.75065536 16.25642963 66.68042639 21.81264616 73.69458008 28.31567383 C74.18732422 28.76990723 74.68006836 29.22414063 75.18774414 29.69213867 C89.03735648 42.60571467 99.71615413 58.23468744 106.13208008 76.06567383 C106.36693115 76.71366943 106.60178223 77.36166504 106.84375 78.02929688 C115.33129548 103.23425884 112.07692273 130.88293334 100.65209961 154.40600586 C93.18575868 169.29680615 84.16241343 183.22505552 72.69458008 195.31567383 C71.50054537 196.68500299 70.31268054 198.05974523 69.13208008 199.44067383 C66.79972503 202.15547047 64.34503642 204.53949265 61.69458008 206.94067383 C53.11734419 215.56816695 50.05187812 224.62496018 50.07348633 236.45410156 C50.26111796 241.14098333 51.60121079 244.20036255 53.69458008 248.31567383 C54.75825838 256.48970622 54.3634415 264.34067783 49.69458008 271.31567383 C48.62568054 272.41325116 47.54212344 273.49673941 46.44458008 274.56567383 C44.20024909 276.96074346 43.71766164 278.02566519 43.45239258 281.35864258 C43.53066724 283.62599861 43.62055777 285.89298274 43.72192383 288.15942383 C43.67458357 293.62384162 41.72782376 297.11504447 38.08129883 301.06176758 C28.88035589 309.56906958 16.34464612 308.50239795 4.54003906 308.50097656 C2.52818231 308.50315102 0.51688642 308.52133452 -1.49487305 308.5402832 C-26.70336435 308.57740911 -26.70336435 308.57740911 -35.30541992 301.31567383 C-35.8803418 300.83743164 -36.45526367 300.35918945 -37.04760742 299.86645508 C-40.52881927 296.69338877 -42.41237372 294.04881868 -43.30541992 289.31567383 C-43.23384305 287.52349899 -43.14930062 285.7318188 -43.05541992 283.94067383 C-42.94248821 279.56011201 -43.48306477 277.41857652 -46.24291992 274.00317383 C-46.78819336 273.42954102 -47.3334668 272.8559082 -47.89526367 272.26489258 C-50.88556683 268.13148185 -50.46359006 262.74309091 -50.49291992 257.81567383 C-50.50709961 256.73286133 -50.5212793 255.65004883 -50.53588867 254.53442383 C-50.30541992 251.31567383 -50.30541992 251.31567383 -49.30151367 248.46801758 C-46.54690872 239.75050308 -47.78376577 228.51177622 -51.63134766 220.28710938 C-56.78396678 210.64364033 -64.33019065 203.11223465 -72.13354492 195.58911133 C-87.65899405 180.55160489 -96.724647 164.44919143 -101.30541992 143.31567383 C-101.52069336 142.36305664 -101.7359668 141.41043945 -101.95776367 140.42895508 C-108.45349463 110.22617681 -105.30212428 74.65391804 -88.30541992 48.31567383 C-77.03764223 32.00828139 -63.05309456 19.30008856 -45.30541992 10.31567383 C-44.6428418 9.94829102 -43.98026367 9.5809082 -43.29760742 9.20239258 C-29.9681636 1.97995335 -14.93624927 -0.04916235 0 0 Z M-37.30541992 22.31567383 C-38.41916992 22.8802832 -39.53291992 23.44489258 -40.68041992 24.02661133 C-61.88502063 35.202009 -78.15151051 53.77838737 -85.53173828 76.7097168 C-94.15821036 105.54687337 -91.78387154 139.06700497 -78.05541992 166.00317383 C-74.90425393 171.41366638 -70.56657312 175.77291398 -66.30541992 180.31567383 C-65.19558606 181.60247436 -64.09104453 182.89386653 -62.99291992 184.19067383 C-60.41017478 187.17772721 -57.67161307 189.94069644 -54.84399414 192.69140625 C-42.66972312 204.56679688 -35.57113128 217.06807191 -34.58666992 234.26098633 C-34.64533088 237.18886231 -34.64533088 237.18886231 -33.30541992 238.31567383 C-26.28280891 239.5157135 -19.30475243 239.46054841 -12.19604492 239.44848633 C-10.95167664 239.44944305 -9.70730835 239.45039978 -8.42523193 239.4513855 C-5.13887754 239.45223644 -1.85257118 239.44823659 1.43377686 239.44262695 C3.44894914 239.44066958 5.46407812 239.44262845 7.47924805 239.44604492 C11.35833762 239.452212 15.23736285 239.45147795 19.11645508 239.44848633 C20.91805084 239.45152267 20.91805084 239.45152267 22.75604248 239.45462036 C23.87110168 239.4514682 24.98616089 239.44831604 26.13500977 239.44506836 C27.11459656 239.44427277 28.09418335 239.44347717 29.10345459 239.44265747 C31.45488282 239.3274207 33.4459213 238.98503913 35.69458008 238.31567383 C35.70875977 237.31149414 35.72293945 236.30731445 35.73754883 235.27270508 C36.25576221 217.18194251 42.9499379 205.74599911 55.76879883 193.22583008 C77.29424539 171.87503217 96.89691572 140.52855595 97.81958008 109.68676758 C97.73602502 94.47626496 92.8170582 77.17980803 84.69458008 64.31567383 C84.03522461 63.14391602 84.03522461 63.14391602 83.36254883 61.94848633 C70.81790824 40.69872575 48.68947569 22.77463793 24.69458008 16.31567383 C3.86762969 11.47378984 -17.98398533 12.27926197 -37.30541992 22.31567383 Z M-35.30541992 252.31567383 C-36.36167252 259.66861449 -36.36167252 259.66861449 -34.30541992 266.31567383 C-30.87571396 269.82254817 -26.65382164 270.30446987 -21.99291992 271.00317383 C-21.16550293 271.12837402 -20.33808594 271.25357422 -19.4855957 271.38256836 C-2.99514688 273.63335385 22.46720324 275.84393269 36.69458008 265.31567383 C39.36381681 260.93444388 39.69458008 257.4523418 39.69458008 252.31567383 C14.94458008 252.31567383 -9.80541992 252.31567383 -35.30541992 252.31567383 Z M22.56958008 284.30395508 C15.63359914 285.47616069 8.78928605 285.58504087 1.77661133 285.52148438 C-0.30294121 285.50319563 -2.38204505 285.50097593 -4.46166992 285.5012207 C-12.45211271 285.47955387 -20.35532346 285.13345719 -28.30541992 284.31567383 C-27.98578503 287.28682538 -27.98578503 287.28682538 -26.30541992 290.31567383 C-18.02098954 295.00899919 -7.08478031 294.48112823 2.13208008 294.44067383 C3.00928711 294.44454102 3.88649414 294.4484082 4.7902832 294.45239258 C18.38159363 294.8175982 18.38159363 294.8175982 29.69458008 288.31567383 C29.7352184 286.64950268 29.73730108 284.98179288 29.69458008 283.31567383 C27.22127525 283.31567383 25.00044354 283.83140218 22.56958008 284.30395508 Z " fill="#93F35A" transform="translate(150.305419921875,41.684326171875)"/>
<path d="M0 0 C2.67138835 0.14518415 4.34410543 -0.13241914 6.875 -0.84375 C10.21274455 -1.03974882 13.53435296 -0.94676555 16.875 -0.84375 C18.08349609 -0.81861328 18.08349609 -0.81861328 19.31640625 -0.79296875 C25.10823441 -0.44996708 27.8577076 0.94299212 31.875 5.15625 C34.31981802 8.79447072 34.07955609 12.11022099 34 16.40625 C33.98195313 17.66953125 33.96390625 18.9328125 33.9453125 20.234375 C33.92210937 21.19859375 33.89890625 22.1628125 33.875 23.15625 C36.37744764 21.97394953 38.2132425 20.87719994 40.375 19.09375 C44.41001452 15.96661374 47.71018961 16.02261084 52.77734375 15.73046875 C58.49490936 16.89101745 62.83301811 22.97617179 66.24609375 27.3671875 C68.93147302 31.96517502 69.21021731 36.0352989 67.875 41.15625 C66.24339822 43.96218937 64.27921797 45.99831777 61.875 48.15625 C61.09125 48.960625 60.3075 49.765 59.5 50.59375 C58.96375 51.109375 58.4275 51.625 57.875 52.15625 C58.535 53.14625 59.195 54.13625 59.875 55.15625 C63.02451772 55.55444142 63.02451772 55.55444142 66.625 55.53125 C74.58152174 55.94701087 74.58152174 55.94701087 77.625 58.34375 C81.5487615 63.24845187 82.16719336 67.98303107 82.1875 74.15625 C82.20425781 75.331875 82.22101563 76.5075 82.23828125 77.71875 C81.72809252 82.54634231 80.02796444 85.82313487 76.875 89.46875 C72.41374955 91.97820338 67.92104367 91.97950591 62.875 92.15625 C64.18129174 95.01300015 65.26233567 96.56203023 67.5 98.90625 C70.06220177 101.90811953 70.40838565 104.15311075 70.34375 108.03125 C69.14319027 113.47378746 65.90586553 117.67168568 62.4375 121.90625 C61.67566406 122.84984375 60.91382813 123.7934375 60.12890625 124.765625 C57.00105805 128.08320403 55.06382564 129.02166596 50.5625 129.53125 C45.94487036 129.06166054 43.8146962 127.56384212 39.875 125.15625 C36.27265194 124.0233462 36.27265194 124.0233462 32.875 125.15625 C32.97941406 126.87521484 32.97941406 126.87521484 33.0859375 128.62890625 C33.67984099 142.43146644 33.67984099 142.43146644 30.3125 146.59375 C25.64945481 151.23152123 18.81136967 151.4103031 12.60351562 151.4296875 C11.34571289 151.41808594 11.34571289 151.41808594 10.0625 151.40625 C9.20462891 151.41398438 8.34675781 151.42171875 7.46289062 151.4296875 C6.64369141 151.42710937 5.82449219 151.42453125 4.98046875 151.421875 C4.23949951 151.41961914 3.49853027 151.41736328 2.73510742 151.41503906 C0.875 151.15625 0.875 151.15625 -1.125 149.15625 C-4.24708076 148.98875582 -4.24708076 148.98875582 -7.8125 149.15625 C-18.51611527 149.26524812 -25.63960225 146.4031522 -33.37109375 139.0078125 C-38.29744414 133.71085593 -41.90676943 129.15714375 -42.3125 121.71875 C-42.2196875 120.4503125 -42.2196875 120.4503125 -42.125 119.15625 C-42.96417969 118.785 -42.96417969 118.785 -43.8203125 118.40625 C-52.10419344 113.91329763 -58.14196618 106.55611341 -62.125 98.15625 C-62.46402344 97.44597656 -62.80304688 96.73570312 -63.15234375 96.00390625 C-66.99554564 85.92657041 -67.0439333 70.47922312 -63.2265625 60.3828125 C-57.89351419 49.60324676 -50.82348732 40.29297746 -39.125 36.15625 C-37.13143723 35.78636004 -35.13175192 35.44617733 -33.125 35.15625 C-33.17140625 34.25003906 -33.2178125 33.34382813 -33.265625 32.41015625 C-33.59675836 21.2344053 -31.76358941 14.14697605 -24.125 5.8828125 C-20.84469844 3.05098967 -17.21491261 1.4943545 -13.125 0.15625 C-12.49980469 -0.05128906 -11.87460938 -0.25882812 -11.23046875 -0.47265625 C-7.4752734 -1.13451814 -3.76336305 -0.41396994 0 0 Z M10.875 13.15625 C10.875 21.40625 10.875 29.65625 10.875 38.15625 C14.505 39.47625 18.135 40.79625 21.875 42.15625 C30.12920921 47.69525881 37.28287056 54.26998887 39.875 64.15625 C40.86481089 73.16923954 40.83681255 80.93511977 35.83984375 88.75390625 C29.26373712 96.7942752 20.85706634 101.66073341 10.875 104.15625 C10.875 115.04625 10.875 125.93625 10.875 137.15625 C13.515 136.82625 16.155 136.49625 18.875 136.15625 C18.71837891 134.4546875 18.71837891 134.4546875 18.55859375 132.71875 C17.79347194 120.83631603 17.79347194 120.83631603 20.703125 116.31640625 C25.97859912 111.62612545 31.4570725 108.62998789 38.671875 108.75390625 C42.86693306 109.52002501 46.33835602 111.86398075 49.875 114.15625 C51.525 112.17625 53.175 110.19625 54.875 108.15625 C54.09125 107.393125 53.3075 106.63 52.5 105.84375 C49.04397235 102.30543597 47.5853099 100.30277536 47.5625 95.40625 C47.70307374 89.37036514 49.44621672 85.27638003 52.8125 80.28125 C57.47694251 77.04469805 62.31562402 77.25378291 67.875 77.15625 C67.875 74.84625 67.875 72.53625 67.875 70.15625 C66.57175781 70.11757812 66.57175781 70.11757812 65.2421875 70.078125 C53.45123876 69.49780985 53.45123876 69.49780985 48.875 65.15625 C44.4394344 59.28212259 42.97854346 54.41505778 43.875 47.15625 C46.16582853 42.74428394 49.27573695 39.55555399 52.875 36.15625 C52.215 34.83625 51.555 33.51625 50.875 32.15625 C47.25807469 32.15625 46.9050883 32.81804928 44.3125 35.15625 C40.32064476 38.23254211 37.35929741 39.0557679 32.34375 38.75390625 C26.8029076 37.41253143 22.96617931 33.79301896 19.875 29.15625 C19.73278935 26.55379502 19.68697068 24.06507316 19.75 21.46875 C19.75902344 20.76685547 19.76804687 20.06496094 19.77734375 19.34179688 C19.80086296 17.61313475 19.83673287 15.88464855 19.875 14.15625 C16.905 13.82625 13.935 13.49625 10.875 13.15625 Z M-16.125 18.15625 C-19.4279393 23.66114883 -19.72806016 28.81252097 -19.125 35.15625 C-18.63 36.14625 -18.63 36.14625 -18.125 37.15625 C-18.02965746 38.8415696 -17.99514242 40.53074266 -18 42.21875 C-17.99613281 43.56646484 -17.99613281 43.56646484 -17.9921875 44.94140625 C-18.125 47.15625 -18.125 47.15625 -19.125 48.15625 C-21.14411286 48.28967155 -23.16561548 48.38750321 -25.1875 48.46875 C-32.64565455 48.99972486 -37.250411 50.67365041 -42.875 55.53125 C-50.6640382 64.61846124 -52.00934998 72.43148092 -51.125 84.15625 C-49.89174353 91.39882891 -46.07375416 96.83633928 -41.125 102.15625 C-40.135 102.81625 -39.145 103.47625 -38.125 104.15625 C-36.64 103.16625 -36.64 103.16625 -35.125 102.15625 C-32.00473093 101.83122197 -29.97752465 101.64473521 -27.25 103.28125 C-25.61348521 106.00877465 -25.79997197 108.03598093 -26.125 111.15625 C-26.785 112.14625 -27.445 113.13625 -28.125 114.15625 C-28.5945428 119.22731228 -28.16084359 122.07356379 -25.125 126.15625 C-24.01125 127.703125 -24.01125 127.703125 -22.875 129.28125 C-18.81491606 133.52588321 -15.2122062 135.01710292 -9.375 135.40625 C-6.11489435 135.28762346 -6.11489435 135.28762346 -3.125 134.15625 C-2.99278378 124.88782917 -2.86229159 115.61938598 -2.73384857 106.35091209 C-2.67412107 102.04463917 -2.61385561 97.73837535 -2.55224609 93.43212891 C-1.85783359 59.09904964 -1.85783359 59.09904964 -2.625 24.78125 C-2.67269531 23.73582031 -2.72039062 22.69039062 -2.76953125 21.61328125 C-2.88356445 19.12735759 -3.00193651 16.64173983 -3.125 14.15625 C-8.86978008 13.98608471 -11.71527985 14.24763441 -16.125 18.15625 Z M10.875 53.15625 C10.875 65.03625 10.875 76.91625 10.875 89.15625 C17.77376134 87.77649773 21.41916686 84.07255185 25.875 78.78125 C27.6523336 74.1157493 27.83967674 69.71940076 26.06640625 65.0078125 C22.99356143 59.457553 18.45671635 56.05128559 12.875 53.15625 C12.215 53.15625 11.555 53.15625 10.875 53.15625 Z " fill="#93F35A" transform="translate(145.125,81.84375)"/>
<path d="M0 0 C3.57277817 0.77669091 4.81205613 1.60992819 6.875 4.625 C7.5625 7.3125 7.5625 7.3125 6.875 10.625 C4.8627846 13.89485003 2.37796463 16.7220771 -0.125 19.625 C-1.050742 20.72159141 -1.97514825 21.81931142 -2.8984375 22.91796875 C-4.78181388 25.15587788 -6.67420772 27.38557996 -8.57421875 29.609375 C-11.11845005 32.54229008 -11.11845005 32.54229008 -13.203125 35.484375 C-15.125 37.625 -15.125 37.625 -17.16015625 38.21875 C-20.05895804 38.08470136 -22.5361519 37.93782555 -25.125 36.5625 C-26.80319561 33.31099601 -26.65889092 31.24359402 -26.125 27.625 C-24.51001134 24.63792747 -22.33312412 22.19199707 -20.125 19.625 C-19.24458386 18.5637508 -18.36579368 17.50115143 -17.48828125 16.4375 C-4.58905802 0.9178116 -4.58905802 0.9178116 0 0 Z " fill="#93F35A" transform="translate(230.125,18.375)"/>
<path d="M0 0 C4.6144112 -0.21973387 6.8282286 -0.22521971 10.80859375 2.30078125 C12.55859375 5.23828125 12.55859375 5.23828125 12.49609375 8.92578125 C11.55859375 12.23828125 11.55859375 12.23828125 9.55859375 14.23828125 C1.65400561 15.54178627 -6.32213735 15.45643157 -14.31640625 15.48828125 C-15.63382812 15.50890625 -16.95125 15.52953125 -18.30859375 15.55078125 C-19.56671875 15.5559375 -20.82484375 15.56109375 -22.12109375 15.56640625 C-23.83401611 15.5804248 -23.83401611 15.5804248 -25.58154297 15.59472656 C-28.44140625 15.23828125 -28.44140625 15.23828125 -30.31298828 13.93652344 C-32.2134993 11.07629958 -31.79648814 8.55237889 -31.44140625 5.23828125 C-30.37890625 3.36328125 -30.37890625 3.36328125 -28.44140625 2.23828125 C-20.88419695 0.92273147 -13.24369298 0.68201046 -5.59423828 0.34228516 C-3.72818129 0.25213543 -1.86377108 0.12904658 0 0 Z " fill="#93F359" transform="translate(299.44140625,147.76171875)"/>
<path d="M0 0 C7.57605336 0.13441385 13.57545411 6.25828393 19.25 10.75 C20.63251953 11.79800781 20.63251953 11.79800781 22.04296875 12.8671875 C31.10158666 19.75351041 31.10158666 19.75351041 31.6875 23.6875 C31.25 26.75 31.25 26.75 29.625 29.125 C26.46259336 31.28875191 25.05370857 31.23046845 21.25 30.75 C18.44295513 29.31520545 15.96774941 27.49693887 13.4375 25.625 C12.02254945 24.61140094 10.60718736 23.59837612 9.19140625 22.5859375 C8.51480957 22.09577148 7.83821289 21.60560547 7.14111328 21.10058594 C4.11860113 18.94198315 0.9887062 16.95520393 -2.1484375 14.96875 C-3.75 13.75 -3.75 13.75 -5.75 10.75 C-6.12167184 7.98979004 -5.92850636 5.56147524 -5.75 2.75 C-3.75 0.75 -3.75 0.75 0 0 Z " fill="#96F358" transform="translate(256.75,212.25)"/>
<path d="M0 0 C3.375 0.5 3.375 0.5 5.3125 1.5 C6.66393302 4.04387391 7.21776911 6.31127585 7.1015625 9.1953125 C4.13688491 18.59939733 -9.69220035 27.2114669 -17.625 32.5 C-21.1336342 33.04468716 -24.45745911 33.1202561 -27.625 31.4375 C-29.37786236 28.04132918 -29.36950116 26.28454756 -28.625 22.5 C-25.98468303 19.39113757 -22.83465357 16.99844976 -19.625 14.5 C-17.70554213 12.94093014 -15.78888504 11.37840594 -13.875 9.8125 C-12.99328125 9.10738281 -12.1115625 8.40226563 -11.203125 7.67578125 C-8.53118252 5.50161313 -8.53118252 5.50161313 -6.0234375 2.76171875 C-3.625 0.5 -3.625 0.5 0 0 Z " fill="#93F35A" transform="translate(41.625,204.5)"/>
<path d="M0 0 C2.0625 1.5625 2.0625 1.5625 3 4 C3.0625 7.4375 3.0625 7.4375 2 11 C-2.28611399 15.1288254 -6.83911436 17.65872412 -12.1875 20.1875 C-17.73174912 22.84078594 -17.73174912 22.84078594 -23 26 C-26.87338754 26.42255137 -29.11598609 26.56667558 -32.4375 24.4375 C-34.69730247 20.91220815 -34.8499852 19.10826182 -34 15 C-28.43782455 8.2232989 -17.7488969 4.71486018 -10 1 C-6.80269021 -0.5986549 -3.47025813 -0.49575116 0 0 Z " fill="#94F359" transform="translate(283,78)"/>
<path d="M0 0 C4.10123668 2.56327293 7.05333319 6.18723792 10.15234375 9.8515625 C11.39644017 11.29818624 12.68206704 12.70998792 14.00390625 14.0859375 C18.82425743 19.16921692 18.82425743 19.16921692 19.6875 23.25 C18.81463343 26.74146627 18.00339193 27.99773871 15 30 C11.76171875 30.5234375 11.76171875 30.5234375 8 30 C5.395249 28.08510364 3.43158176 25.72970624 1.375 23.25 C0.28188608 21.98157536 -0.8144093 20.71588465 -1.9140625 19.453125 C-2.69185059 18.55303711 -2.69185059 18.55303711 -3.48535156 17.63476562 C-5.46342576 15.49982287 -7.70099619 13.77612568 -10 12 C-11.5986549 8.80269021 -11.49575116 5.47025813 -11 2 C-7.93804716 -2.04177775 -4.55753962 -1.19935253 0 0 Z " fill="#95F358" transform="translate(79,22)"/>
<path d="M0 0 C1.69384766 1.06054688 1.69384766 1.06054688 3 3 C3.2981684 5.55187144 3.42066726 7.85502507 3.3984375 10.40625 C3.40274277 11.48791443 3.40274277 11.48791443 3.40713501 12.59143066 C3.40917452 14.11450995 3.40365247 15.6376155 3.39111328 17.16064453 C3.37505643 19.49180678 3.3909641 21.82123542 3.41015625 24.15234375 C3.4081738 25.63281633 3.40433007 27.11328782 3.3984375 28.59375 C3.40754654 29.63915955 3.40754654 29.63915955 3.4168396 30.70568848 C3.37542694 33.55562072 3.31012433 35.53950884 1.69384766 37.93945312 C-1.18464124 39.74172407 -3.71618885 39.35183691 -7 39 C-9.09518238 37.60321175 -9.77418153 36.67002462 -10.57128906 34.30493164 C-11.4768925 29.43602386 -10.97435346 24.40170999 -10.81298828 19.47290039 C-10.75010882 17.44101634 -10.70875006 15.40938531 -10.66796875 13.37695312 C-10.62800781 12.09626953 -10.58804688 10.81558594 -10.546875 9.49609375 C-10.49805176 7.73543579 -10.49805176 7.73543579 -10.44824219 5.93920898 C-10 3 -10 3 -8.68457031 1.11743164 C-5.83221762 -0.77462898 -3.30177843 -0.35376197 0 0 Z " fill="#93F35B" transform="translate(153,0)"/>
<path d="M0 0 C1.4375 2.375 1.4375 2.375 1.4375 5.9375 C0.31658962 9.79062944 -0.17107832 10.45677507 -3.5625 12.375 C-8.01809727 13.00595863 -12.50457308 12.83837635 -17 12.8125 C-18.22783203 12.83248047 -19.45566406 12.85246094 -20.72070312 12.87304688 C-22.49670898 12.87208008 -22.49670898 12.87208008 -24.30859375 12.87109375 C-25.92785767 12.87387329 -25.92785767 12.87387329 -27.57983398 12.87670898 C-31.26865819 12.25621838 -32.94533591 11.00706312 -35.5625 8.375 C-36.21497512 4.89513268 -36.10991599 3.21375783 -34.16796875 0.23828125 C-30.14362505 -2.63969768 -26.14956022 -2.34049119 -21.3125 -2.4375 C-20.39597656 -2.47552734 -19.47945312 -2.51355469 -18.53515625 -2.55273438 C-4.75399368 -3.0147277 -4.75399368 -3.0147277 0 0 Z " fill="#95F358" transform="translate(35.5625,143.625)"/>
<path d="M0 0 C0.84304687 -0.00773437 1.68609375 -0.01546875 2.5546875 -0.0234375 C5.68535625 0.46186373 7.47639635 1.65360919 10.125 3.375 C13.22822243 4.9405538 16.35264366 6.45695309 19.48046875 7.97265625 C22.125 9.375 22.125 9.375 24.125 11.375 C24.54812436 15.18311922 24.61720163 17.51899717 22.6875 20.875 C19.63764206 22.6602827 17.51154775 22.80365466 14.0390625 22.2578125 C6.81452904 20.06914687 -2.98028517 16.34563719 -7.875 10.375 C-8.52771967 4.28294979 -8.52771967 4.28294979 -6.65625 1.6796875 C-4.32551546 -0.02747333 -2.86908143 -0.02616184 0 0 Z " fill="#94F35A" transform="translate(18.875,72.625)"/>
</svg>
